HIERARCHY
ROOT hip
{
	OFFSET	0.00  0.00  0.00 
	CHANNELS 6 Xposition Yposition Zposition Xrotation Zrotation Yrotation
	JOINT abdomen
	{
		OFFSET	0.000000 0.000000 0.000000
		CHANNELS 3 Xrotation Zrotation Yrotation
		JOINT chest
		{
			OFFSET	0.000000 5.018152 -1.882228
			CHANNELS 3 Xrotation Zrotation Yrotation
			JOINT neckDummy
			{
				OFFSET	0.000000 8.316447 0.784897
				CHANNELS 3 Xrotation Yrotation Zrotation
				JOINT neck
				{
					OFFSET	0.000000 2.280413 -0.392801
					CHANNELS 3 Xrotation Zrotation Yrotation
					JOINT head
					{
						OFFSET	0.000000 3.496879 0.529469
						CHANNELS 3 Xrotation Zrotation Yrotation
						JOINT figureHair
						{
							OFFSET	0.000000 4.699570 0.720622
							CHANNELS 3 Zrotation Yrotation Xrotation
							End Site
							{
								OFFSET 0.000000 -6.419331 0.000000
							}
						}
					}
				}
			}
			JOINT lCollar
			{
				OFFSET	0.599237 8.316447 0.784897
				CHANNELS 3 Yrotation Zrotation Xrotation
				JOINT lShldr
				{
					OFFSET	6.421198 0.010146 -0.332128
					CHANNELS 3 Zrotation Yrotation Xrotation
					JOINT lForeArm
					{
						OFFSET	10.552783 0.025574 0.125508
						CHANNELS 3 Yrotation Zrotation Xrotation
						JOINT lHand
						{
							OFFSET	11.035963 0.319619 0.041520
							CHANNELS 3 Zrotation Yrotation Xrotation
							End Site
							{
								OFFSET 10.353753 0.000000 0.000000
							}
						}
					}
				}
			}
			JOINT rCollar
			{
				OFFSET	-0.599237 8.316447 0.784897
				CHANNELS 3 Yrotation Zrotation Xrotation
				JOINT rShldr
				{
					OFFSET	-6.421198 0.010146 -0.332128
					CHANNELS 3 Zrotation Yrotation Xrotation
					JOINT rForeArm
					{
						OFFSET	-10.552783 0.025574 0.125508
						CHANNELS 3 Yrotation Zrotation Xrotation
						JOINT rHand
						{
							OFFSET	-11.035963 0.319619 0.041520
							CHANNELS 3 Zrotation Yrotation Xrotation
							End Site
							{
								OFFSET -10.353753 0.000000 0.000000
							}
						}
					}
				}
			}
		}
	}
	JOINT lThigh
	{
		OFFSET	4.500466 -6.400484 -1.832696
		CHANNELS 3 Xrotation Zrotation Yrotation
		JOINT lShin
		{
			OFFSET	-1.359117 -18.918689 1.179887
			CHANNELS 3 Xrotation Zrotation Yrotation
			JOINT lFoot
			{
				OFFSET	-0.652380 -17.215186 -0.312137
				CHANNELS 3 Xrotation Yrotation Zrotation
				End Site
				{
					OFFSET 0.000000 0.000000 10.353752
				}
			}
		}
	}
	JOINT rThigh
	{
		OFFSET	-4.500466 -6.400484 -1.832696
		CHANNELS 3 Xrotation Zrotation Yrotation
		JOINT rShin
		{
			OFFSET	1.359117 -18.918689 1.179887
			CHANNELS 3 Xrotation Zrotation Yrotation
			JOINT rFoot
			{
				OFFSET	0.652380 -17.215186 -0.312137
				CHANNELS 3 Xrotation Yrotation Zrotation
				End Site
				{
					OFFSET 0.000000 0.000000 10.353752
				}
			}
		}
	}
}
MOTION
Frames:     12
Frame Time: 0.066667
11.229992 39.180004 16.080042 -6.660160 19.707001 -135.811005 15.136700 -34.755901 11.054700 0.000000 0.000000 0.000000 0.000000 0.000000 0.000000 -28.144501 1.708980 -28.515301 0.000000 0.000000 0.000000 0.000000 0.000000 0.000000 0.000000 0.000000 0.000000 -30.420300 -1.607160 36.984001 -128.927002 35.762001 73.707802 10.921600 -18.187201 -37.073299 0.000000 0.000000 0.000000 -6.186630 7.134220 39.554600 144.888000 -31.672199 61.303799 -11.369100 20.874001 -28.218700 -48.062244 13.075581 -12.955532 43.584843 8.870514 -14.074625 -14.921486 -8.786799 -9.374087 -30.787306 -18.658749 -12.952200 45.847637 -0.751962 -0.487778 11.662053 1.345406 18.368237 
12.189992 39.650002 14.459989 -2.138670 20.009800 -135.378006 12.392600 -42.255901 11.341100 0.000000 0.000000 0.000000 0.000000 0.000000 0.000000 -41.533199 -0.322266 -30.253901 0.000000 0.000000 0.000000 0.000000 0.000000 0.000000 0.000000 0.000000 0.000000 -19.489401 5.762190 36.266800 -134.263000 35.478802 78.042702 12.342000 -17.801701 -42.465900 0.000000 0.000000 0.000000 -30.217501 -3.715560 44.460602 147.317993 -29.931700 62.414398 -9.724030 19.215200 -34.218300 -42.136044 18.749382 -15.798535 39.410339 9.727179 -12.280361 -17.307379 -7.453397 -11.555478 -23.318966 -11.102402 -17.730391 39.874489 -3.563760 1.092751 9.123557 1.258101 18.766552 
11.810009 39.169991 13.829964 -1.123050 18.193399 -135.186005 15.166000 -43.847698 5.781250 0.000000 0.000000 0.000000 0.000000 0.000000 0.000000 -39.375000 -3.232420 -29.854099 0.000000 0.000000 0.000000 0.000000 0.000000 0.000000 0.000000 0.000000 0.000000 -23.213600 1.379270 36.591999 -132.289993 34.460800 76.889702 12.019400 -17.519600 -41.755199 0.000000 0.000000 0.000000 -30.541000 -10.019200 51.514900 149.149994 -28.920700 61.811199 -10.910400 18.637600 -34.428600 -39.793770 18.095432 -15.569623 42.012779 10.943076 -12.293940 -21.747911 -8.740717 -11.280316 -23.715284 -6.941387 -8.815154 42.827576 -3.782168 -1.414951 3.828350 -6.294688 17.203753 
11.360035 37.169998 15.090015 -2.216800 10.644500 -144.783005 22.646500 -41.845699 0.507812 0.000000 0.000000 0.000000 0.000000 0.000000 0.000000 -28.769501 -2.539060 -25.878901 0.000000 0.000000 0.000000 0.000000 0.000000 0.000000 0.000000 0.000000 0.000000 -33.858898 -3.731970 41.505798 -127.300003 35.446301 74.007401 12.405500 -16.976801 -36.830101 0.000000 0.000000 0.000000 -16.501600 -2.272050 51.814400 149.602997 -30.992599 63.068802 -12.689800 17.986300 -32.245800 -37.596146 14.052222 -9.736894 53.607674 9.338461 -10.051694 -26.049257 -5.836454 -9.006809 -28.854591 -11.883567 -2.363029 53.009636 -7.430537 0.326238 1.946878 -5.205496 14.649594 
9.790003 36.230000 17.900023 -0.097656 1.708980 -161.875000 27.060499 -37.880901 -2.558600 0.000000 0.000000 0.000000 0.000000 0.000000 0.000000 -20.459000 -0.390625 -21.689501 0.000000 0.000000 0.000000 0.000000 0.000000 0.000000 0.000000 0.000000 0.000000 -38.764099 -9.098040 43.398899 -122.091003 34.452202 70.792603 12.819800 -16.237000 -32.906799 0.000000 0.000000 0.000000 3.536140 1.629700 55.604801 149.238007 -33.019199 61.516102 -18.091801 16.897301 -31.747499 -32.624710 9.374292 1.115673 63.582230 5.492113 -7.655618 -30.248791 1.516955 -3.154505 -35.412575 -19.381491 4.689813 55.663929 -10.493990 4.042585 1.165053 -4.419679 15.895082 
7.409995 36.970005 18.980024 -173.770004 -174.873001 -0.068359 30.263700 -28.144501 -7.490230 0.000000 0.000000 0.000000 0.000000 0.000000 0.000000 -18.447300 0.996094 -18.642599 0.000000 0.000000 0.000000 0.000000 0.000000 0.000000 0.000000 0.000000 0.000000 -28.221600 -17.524599 41.236198 -120.657997 34.181099 69.399696 9.588980 -15.094200 -32.654701 0.000000 0.000000 0.000000 19.026100 -6.840110 59.465000 144.847000 -31.646400 60.952499 -21.228399 18.735600 -30.888399 -20.950443 3.004960 13.974273 61.799286 2.338999 -5.375187 -32.348106 8.802304 2.127259 -36.684540 -24.734230 10.376807 48.762257 -7.828330 3.381969 6.675569 -6.012322 13.857117 
6.430002 38.659996 16.789997 7.578130 -6.474610 163.007996 26.777300 -11.298800 -9.941410 0.000000 0.000000 0.000000 0.000000 0.000000 0.000000 -24.423800 -1.269530 -14.765600 0.000000 0.000000 0.000000 0.000000 0.000000 0.000000 0.000000 0.000000 0.000000 -6.849310 -21.516701 34.743301 -122.470001 35.930401 68.991798 3.232630 -16.117100 -37.262100 0.000000 0.000000 0.000000 23.450500 -17.937599 53.658199 139.309998 -34.049801 59.299000 -19.160000 23.645201 -31.338800 -9.717957 -2.610084 21.779104 49.024761 -0.199131 -2.069427 -28.764475 13.032351 3.422651 -37.452785 -27.348343 2.356825 47.413040 -4.989679 -2.293166 11.919749 -4.514390 6.936625 
7.549998 40.139992 14.880041 5.751950 -4.023440 145.811005 18.066401 11.484400 -10.146500 0.000000 0.000000 0.000000 0.000000 0.000000 0.000000 -36.386700 -4.785160 -6.464840 0.000000 0.000000 0.000000 0.000000 0.000000 0.000000 0.000000 0.000000 0.000000 9.684120 -17.640800 32.195099 -125.475998 36.562099 71.929604 -2.537550 -23.577700 -37.821400 0.000000 0.000000 0.000000 23.962900 -22.124901 46.636002 141.923004 -33.050301 60.250801 -16.001400 22.554300 -30.002501 -1.562345 -6.961989 19.612091 33.437244 0.151285 3.198947 -21.462317 13.900000 0.564993 -37.057346 -25.328148 -17.280863 55.749496 -5.322400 -10.039637 4.269688 -5.013991 6.134910 
13.640036 39.299992 15.489980 1.367190 -3.593750 122.763000 14.462900 23.417999 -5.357450 0.000000 0.000000 0.000000 0.000000 0.000000 0.000000 -46.621101 -3.720700 -5.293600 0.000000 0.000000 0.000000 0.000000 0.000000 0.000000 0.000000 0.000000 0.000000 32.226002 -21.159100 23.054100 -126.025002 37.718300 73.600998 -6.786670 -28.623199 -35.615299 0.000000 0.000000 0.000000 34.689098 -15.316400 42.652000 144.253006 -31.051500 60.232201 -14.690700 21.112600 -26.448099 -3.540056 -6.685168 15.334090 38.087757 -0.825327 6.317782 -16.524633 8.774791 -4.944191 -34.566418 -18.587912 -28.235363 57.318748 0.427529 -19.609280 -6.322254 -0.669224 2.521656 
14.179982 38.200001 15.699954 0.615234 -4.746090 95.057800 17.539101 18.476601 -2.018390 0.000000 0.000000 0.000000 0.000000 0.000000 0.000000 -42.724602 -1.591800 -3.613550 0.000000 0.000000 0.000000 0.000000 0.000000 0.000000 0.000000 0.000000 0.000000 22.761499 -29.212900 19.564800 -125.639000 35.240700 72.468399 -0.109617 -25.823700 -33.052101 0.000000 0.000000 0.000000 35.611198 6.328550 40.641499 142.462006 -31.122000 59.011200 -12.974200 19.777800 -25.084400 -21.081787 0.155574 17.234381 70.178726 -3.794900 -1.240292 -1.923117 4.932270 -8.609294 -37.205700 -6.318080 -22.383108 54.381367 -2.832611 -11.680749 -18.045382 -0.236402 -2.390995 
14.500018 37.929993 14.699989 1.816410 -5.136720 68.534302 19.951200 6.191410 -2.127850 0.000000 0.000000 0.000000 0.000000 0.000000 0.000000 -28.632799 -2.119140 -5.215210 0.000000 0.000000 0.000000 0.000000 0.000000 0.000000 0.000000 0.000000 0.000000 -10.277100 -40.815498 34.303600 -123.047997 33.254101 67.808296 4.905620 -22.195700 -30.711300 0.000000 0.000000 0.000000 14.372400 21.268999 27.775700 138.352997 -32.740799 57.685799 -9.150920 20.937901 -27.015699 -41.730183 7.604502 10.019037 88.317200 -0.693135 -8.151094 3.302981 9.309401 -8.522095 -38.048939 4.940313 -7.525039 51.866890 -5.991318 -1.381217 -20.137808 -2.558397 -4.604663 
15.539948 40.159996 13.170014 5.820310 -4.414060 37.529301 22.812500 -15.703100 -9.006550 0.000000 0.000000 0.000000 0.000000 0.000000 0.000000 -19.882799 5.449220 -3.993210 0.000000 0.000000 0.000000 0.000000 0.000000 0.000000 0.000000 0.000000 0.000000 -32.190601 -38.368401 46.340599 -122.459999 33.443001 63.959400 6.370120 -22.251499 -30.793800 0.000000 0.000000 0.000000 -11.905000 21.836700 18.395800 137.533997 -31.642900 55.516102 -5.485040 19.688900 -30.120199 -46.971287 4.325982 -2.008548 62.616489 6.527623 -2.997843 -6.513197 -0.884200 -20.343004 -33.558033 8.493501 6.512781 38.782024 -7.350748 8.361542 -10.974950 5.598242 0.625333 
